{"title":"Wim Wenders - Summer in the City (1970)","uid":10319585,"size":1762130586,"categoryP":"video","categoryS":"movies","magnet":"?xt=urn:btih:06cf57fffd60afc2e07b31cc48aa5cfda45a3672&amp;dn=Wim+Wenders+-+Summer+in+the+City+%281970%29+&amp;tr=udp%3A%2F%2Ftracker.openbittorrent.com%3A80&amp;tr=udp%3A%2F%2Fopen.demonii.com%3A1337&amp;tr=udp%3A%2F%2Ftracker.coppersurfer.tk%3A6969&amp;tr=udp%3A%2F%2Fexodus.desync.com%3A6969","seeders":4,"leechers":3,"uploader":"Aaaameida","files":-1,"time":1402289823,"description":"Prison discharges Hans into a freedom as inhospitable as the winter weather. As a stranger, he strays in familiar streets, bars, flies to a friend in Berlin. \n \nFirst film by Wim Wenders!\n\nLanguage: German\n\nSubtitles: English\n\nIMDB: http://www.imdb.com/title/tt0066421\n\nGeneral\nComplete name : /home/dwagonfwy/Videos/Summer in the City (1970).mkv\nFormat : Matroska\nFormat version : Version 2\nFile size : 1.64 GiB\nDuration : 1h 53mn\nOverall bit rate : 2 065 Kbps\nWriting application : HandBrake 4206svn\nWriting library : libmkv 0.6.4.2\n\nVideo\nID : 1\nFormat : AVC\nFormat/Info : Advanced Video Codec\nFormat profile : &lt;a class=&quot;__cf_email__&quot; href=&quot;/cdn-cgi/l/email-protection&quot; data-cfemail=&quot;e9a1808e81a9a5dac7d9&quot;&gt;[email&amp;#160;protected]&lt;/a&gt;&lt;script cf-hash='f9e31' type=&quot;text/javascript&quot;&gt;\n/* &lt;![CDATA[ */!function(){try{var t=&quot;currentScript&quot;in document?document.currentScript:function(){for(var t=document.getElementsByTagName(&quot;script&quot;),e=t.length;e--;)if(t[e].getAttribute(&quot;cf-hash&quot;))return t[e]}();if(t&amp;&amp;t.previousSibling){var e,r,n,i,c=t.previousSibling,a=c.getAttribute(&quot;data-cfemail&quot;);if(a){for(e=&quot;&quot;,r=parseInt(a.substr(0,2),16),n=2;a.length-n;n+=2)i=parseInt(a.substr(n,2),16)^r,e+=String.fromCharCode(i);e=document.createTextNode(e),c.parentNode.replaceChild(e,c)}}}catch(u){}}();/* ]]&gt; */&lt;/script&gt;\nFormat settings, CABAC : Yes\nFormat settings, ReFrames : 5 frames\nCodec ID : V_MPEG4/ISO/AVC\nDuration : 1h 53mn\nBit rate : 1 768 Kbps\nWidth : 694 pixels\nHeight : 470 pixels\nDisplay aspect ratio : 4:3\nOriginal display aspect ratio : 4:3\nFrame rate mode : Variable\nFrame rate : 29.970 fps\nColor space : YUV\nChroma subsampling : 4:2:0\nBit depth : 8 bits\nScan type : Progressive\nBits/(Pixel*Frame) : 0.181\nStream size : 1.41 GiB (86%)\nWriting library : x264 core 116\nEncoding settings : cabac=1 / ref=5 / deblock=1:-2:-2 / analyse=0x3:0x113 / me=umh / subme=8 / psy=1 / psy_rd=1.00:0.00 / mixed_ref=1 / me_range=16 / chroma_me=1 / trellis=1 / 8x8dct=1 / cqm=0 / deadzone=21,11 / fast_pskip=1 / chroma_qp_offset=-2 / threads=1 / sliced_threads=0 / nr=0 / decimate=1 / interlaced=0 / bluray_compat=0 / constrained_intra=0 / bframes=5 / b_pyramid=2 / b_adapt=2 / b_bias=0 / direct=3 / weightb=1 / open_gop=0 / weightp=2 / keyint=300 / keyint_min=30 / scenecut=40 / intra_refresh=0 / rc_lookahead=40 / rc=crf / mbtree=1 / crf=20.0 / qcomp=0.60 / qpmin=3 / qpmax=69 / qpstep=4 / ip_ratio=1.40 / aq=1:0.90\nLanguage : English\nColor primaries : BT.601-6 525, BT.1358 525, BT.1700 NTSC, SMPTE 170M\nTransfer characteristics : BT.709-5, BT.1361\nMatrix coefficients : BT.601-6 525, BT.1358 525, BT.1700 NTSC, SMPTE 170M\n\nAudio\nID : 2\nFormat : AC-3\nFormat/Info : Audio Coding 3\nMode extension : CM (complete main)\nCodec ID : A_AC3\nDuration : 1h 53mn\nBit rate mode : Constant\nBit rate : 256 Kbps\nChannel(s) : 2 channels\nChannel positions : Front: L R\nSampling rate : 48.0 KHz\nBit depth : 16 bits\nCompression mode : Lossy\nStream size : 208 MiB (12%)\n\nText\nID : 3\nFormat : VobSub\nCodec ID : S_VOBSUB\nCodec ID/Info : The same subtitle format used on DVDs","torrent":{"xt":"urn:btih:06cf57fffd60afc2e07b31cc48aa5cfda45a3672","amp;dn":"Wim+Wenders+-+Summer+in+the+City+%281970%29+","amp;tr":["udp%3A%2F%2Ftracker.openbittorrent.com%3A80","udp%3A%2F%2Fopen.demonii.com%3A1337","udp%3A%2F%2Ftracker.coppersurfer.tk%3A6969","udp%3A%2F%2Fexodus.desync.com%3A6969"],"infoHash":"06cf57fffd60afc2e07b31cc48aa5cfda45a3672","infoHashBuffer":{"type":"Buffer","data":[6,207,87,255,253,96,175,194,224,123,49,204,72,170,92,253,164,90,54,114]},"announce":[],"urlList":[]}}